<svg width="246" height="66" viewBox="0 0 246 66" fill="none" xmlns="http://www.w3.org/2000/svg">
<path d="M6.3925 50V0.975998H6.4565L32.6325 38.096L28.6645 37.2L54.7765 0.975998H54.9045V50H45.6245V21.904L46.2005 26.704L30.2645 49.36H30.1365L13.7525 26.704L15.3525 22.288V50H6.3925ZM61.768 50L83.016 1.04H83.528L104.776 50H94.024L80.456 15.568L87.176 10.96L70.92 50H61.768ZM76.296 32.976H90.44L93.704 40.784H73.416L76.296 32.976ZM108.443 50C108.443 50 108.805 49.424 109.531 48.272C110.256 47.12 111.216 45.584 112.411 43.664C113.648 41.744 115.013 39.568 116.507 37.136C118.043 34.704 119.6 32.208 121.179 29.648C122.8 27.088 124.357 24.592 125.851 22.16C127.387 19.728 128.752 17.552 129.947 15.632C131.184 13.712 132.165 12.176 132.891 11.024C133.616 9.872 133.979 9.296 133.979 9.296L135.003 11.856H118.043C117.147 11.856 116.208 11.664 115.227 11.28C114.288 10.8533 113.477 10.2987 112.795 9.616C112.155 8.89067 111.835 8.10133 111.835 7.248V0.527996H120.347V1.424C120.347 2.36266 120.496 2.85333 120.795 2.896C121.093 2.896 121.627 2.896 122.395 2.896H148.571L123.739 42.064L123.227 41.04H148.507V50H108.443ZM152.518 50L173.766 1.04H174.278L195.526 50H184.774L171.206 15.568L177.926 10.96L161.67 50H152.518ZM167.046 32.976H181.19L184.454 40.784H164.166L167.046 32.976ZM202.393 50V2.896H216.473C221.209 2.896 225.241 3.6 228.569 5.008C231.897 6.416 234.563 8.29333 236.569 10.64C238.617 12.9867 240.11 15.6107 241.049 18.512C241.987 21.4133 242.457 24.336 242.457 27.28C242.457 30.7787 241.817 33.936 240.537 36.752C239.299 39.5253 237.593 41.9147 235.417 43.92C233.241 45.8827 230.723 47.3973 227.865 48.464C225.006 49.488 221.977 50 218.777 50H202.393ZM211.673 41.04H217.177C219.523 41.04 221.657 40.7413 223.577 40.144C225.497 39.504 227.139 38.5867 228.505 37.392C229.913 36.1973 230.979 34.704 231.705 32.912C232.473 31.0773 232.857 28.9867 232.857 26.64C232.857 23.568 232.345 21.072 231.321 19.152C230.339 17.1893 229.102 15.6747 227.609 14.608C226.158 13.5413 224.665 12.816 223.129 12.432C221.593 12.0053 220.291 11.792 219.225 11.792H211.673V41.04Z" fill="white"/>
</svg>
