<svg width="24" height="24" viewBox="0 0 24 24" fill="none" xmlns="http://www.w3.org/2000/svg">
    <path
        d="M16.75 8C16.75 6.522 16.42 5.099 15.643 4.025C14.843 2.918 13.613 2.25 12 2.25C10.387 2.25 9.158 2.918 8.357 4.025C7.58 5.099 7.25 6.522 7.25 8V9.25H6.67C6.135 9.25 5.69 9.25 5.325 9.28C4.945 9.311 4.589 9.378 4.252 9.55C3.73445 9.81367 3.31367 10.2344 3.05 10.752C2.878 11.089 2.81 11.446 2.78 11.826C2.75 12.19 2.75 12.636 2.75 13.17V17.83C2.75 18.365 2.75 18.81 2.78 19.175C2.81 19.555 2.878 19.912 3.05 20.249C3.31367 20.7666 3.73445 21.1873 4.252 21.451C4.589 21.623 4.945 21.69 5.325 21.721C5.69 21.751 6.135 21.751 6.67 21.751H17.33C17.865 21.751 18.31 21.751 18.675 21.721C19.055 21.69 19.411 21.623 19.748 21.451C20.2656 21.1873 20.6863 20.7666 20.95 20.249C21.122 19.912 21.19 19.555 21.22 19.175C21.25 18.811 21.25 18.365 21.25 17.831V13.17C21.25 12.636 21.25 12.19 21.22 11.826C21.19 11.446 21.122 11.089 20.95 10.752C20.6869 10.2348 20.2668 9.81401 19.75 9.55C19.412 9.378 19.056 9.311 18.676 9.28C18.311 9.25 17.866 9.25 17.331 9.25H16.751L16.75 8ZM8.75 8C8.75 6.717 9.04 5.64 9.572 4.904C10.082 4.201 10.852 3.75 12 3.75C13.148 3.75 13.919 4.2 14.428 4.904C14.96 5.64 15.25 6.717 15.25 8V9.25H8.75V8ZM12.75 15.25V15.75C12.75 15.9489 12.671 16.1397 12.5303 16.2803C12.3897 16.421 12.1989 16.5 12 16.5C11.8011 16.5 11.6103 16.421 11.4697 16.2803C11.329 16.1397 11.25 15.9489 11.25 15.75V15.25C11.25 15.0511 11.329 14.8603 11.4697 14.7197C11.6103 14.579 11.8011 14.5 12 14.5C12.1989 14.5 12.3897 14.579 12.5303 14.7197C12.671 14.8603 12.75 15.0511 12.75 15.25ZM16 14.5C16.1989 14.5 16.3897 14.579 16.5303 14.7197C16.671 14.8603 16.75 15.0511 16.75 15.25V15.75C16.75 15.9489 16.671 16.1397 16.5303 16.2803C16.3897 16.421 16.1989 16.5 16 16.5C15.8011 16.5 15.6103 16.421 15.4697 16.2803C15.329 16.1397 15.25 15.9489 15.25 15.75V15.25C15.25 15.0511 15.329 14.8603 15.4697 14.7197C15.6103 14.579 15.8011 14.5 16 14.5ZM8.75 15.25V15.75C8.75 15.9489 8.67098 16.1397 8.53033 16.2803C8.38968 16.421 8.19891 16.5 8 16.5C7.80109 16.5 7.61032 16.421 7.46967 16.2803C7.32902 16.1397 7.25 15.9489 7.25 15.75V15.25C7.25 15.0511 7.32902 14.8603 7.46967 14.7197C7.61032 14.579 7.80109 14.5 8 14.5C8.19891 14.5 8.38968 14.579 8.53033 14.7197C8.67098 14.8603 8.75 15.0511 8.75 15.25Z"
        fill="#888888" />
</svg>